<?xml version="1.0" encoding="UTF-8" standalone="no"?>
<!-- Created with Inkscape (http://www.inkscape.org/) -->

<svg
   xmlns:dc="http://purl.org/dc/elements/1.1/"
   xmlns:cc="http://creativecommons.org/ns#"
   xmlns:rdf="http://www.w3.org/1999/02/22-rdf-syntax-ns#"
   xmlns:svg="http://www.w3.org/2000/svg"
   xmlns="http://www.w3.org/2000/svg"
   xmlns:sodipodi="http://sodipodi.sourceforge.net/DTD/sodipodi-0.dtd"
   xmlns:inkscape="http://www.inkscape.org/namespaces/inkscape"
   width="100"
   height="100"
   viewBox="0 0 100 100"
   id="svg2"
   version="1.1"
   inkscape:version="0.91 r13725"
   inkscape:export-filename="C:\Users\evan\Source\EWDining\resources\images\subscriptions\pinterest.png"
   inkscape:export-xdpi="90"
   inkscape:export-ydpi="90"
   sodipodi:docname="pinterest.svg">
  <defs
     id="defs4">
    <clipPath
       clipPathUnits="userSpaceOnUse"
       id="clipPath20">
      <path
         d="m 0 10.012 h 1366.9 v 1110.9 h -1366.9 Z"
         id="path18" />
    </clipPath>
  </defs>
  <sodipodi:namedview
     id="base"
     pagecolor="#000000"
     bordercolor="#666666"
     borderopacity="1.0"
     inkscape:pageopacity="0"
     inkscape:pageshadow="2"
     inkscape:zoom="0.98994949"
     inkscape:cx="14.605775"
     inkscape:cy="69.705754"
     inkscape:document-units="px"
     inkscape:current-layer="layer1"
     showgrid="false"
     units="px"
     inkscape:snap-page="true"
     inkscape:snap-nodes="true"
     inkscape:snap-bbox="true"
     inkscape:bbox-nodes="true"
     borderlayer="true"
     inkscape:snap-global="true"
     inkscape:window-width="1373"
     inkscape:window-height="937"
     inkscape:window-x="-8"
     inkscape:window-y="-8"
     inkscape:window-maximized="1"
     inkscape:object-nodes="true" />
  <metadata
     id="metadata7">
    <rdf:RDF>
      <cc:Work
         rdf:about="">
        <dc:format>image/svg+xml</dc:format>
        <dc:type
           rdf:resource="http://purl.org/dc/dcmitype/StillImage" />
        <dc:title></dc:title>
      </cc:Work>
    </rdf:RDF>
  </metadata>
  <g
     inkscape:label="Layer 1"
     inkscape:groupmode="layer"
     id="layer1"
     transform="translate(0,-952.36216)">
    <path
       style="fill:#ffffff;fill-opacity:1"
       d="m 51.339356,952.36216 c -26.172811,0 -40.065813,17.56081 -40.065813,36.70355 0,8.88821 4.730764,19.96179 12.306597,23.48539 1.153158,0.5368 1.762587,0.3012 2.023991,-0.8068 0.202844,-0.8452 1.229702,-4.9575 1.686679,-6.8776 0.15073,-0.613 0.07623,-1.1395 -0.424125,-1.7455 -2.49347,-3.0269 -4.502278,-8.62344 -4.502278,-13.83236 0,-13.37122 10.126328,-26.30995 27.375211,-26.30995 14.905318,0 25.328256,10.14546 25.328256,24.66486 0,16.40685 -8.272014,27.76815 -19.05663,27.76815 -5.954983,0 -10.412098,-4.9144 -8.983886,-10.9626 1.716021,-7.20356 5.025273,-14.99014 5.025273,-20.18184 0,-4.66481 -2.500676,-8.54758 -7.674959,-8.54758 -6.083005,0 -10.974707,6.2965 -10.974707,14.73245 0,5.36967 1.818211,8.99728 1.818211,8.99728 0,0 -6.007034,25.41629 -7.104696,30.14679 -1.872813,8.0284 0.244945,21.036 0.431844,22.172 0.09505,0.6099 0.772471,0.8159 1.155199,0.3031 0.590676,-0.7878 7.835066,-11.6521 9.883933,-19.5082 0.727182,-2.8348 3.767951,-14.4155 3.767951,-14.4155 1.98763,3.7718 7.754056,6.9612 13.899382,6.9612 18.287351,0 31.471673,-16.8259 31.471673,-37.71776 0,-20.03769 -16.347565,-35.02848 -37.386724,-35.02848"
       id="path26"
       inkscape:connector-curvature="0" />
  </g>
</svg>
