<?xml version="1.0" encoding="UTF-8" standalone="no"?>
<svg
   xmlns:dc="http://purl.org/dc/elements/1.1/"
   xmlns:cc="http://creativecommons.org/ns#"
   xmlns:rdf="http://www.w3.org/1999/02/22-rdf-syntax-ns#"
   xmlns:svg="http://www.w3.org/2000/svg"
   xmlns="http://www.w3.org/2000/svg"
   xmlns:sodipodi="http://sodipodi.sourceforge.net/DTD/sodipodi-0.dtd"
   xmlns:inkscape="http://www.inkscape.org/namespaces/inkscape"
   version="1.1"
   x="0px"
   y="0px"
   viewBox="0 0 100 125"
   enable-background="new 0 0 100 100"
   xml:space="preserve"
   id="svg2"
   inkscape:version="0.91 r13725"
   sodipodi:docname="lactose.svg"><metadata
     id="metadata10"><rdf:RDF><cc:Work
         rdf:about=""><dc:format>image/svg+xml</dc:format><dc:type
           rdf:resource="http://purl.org/dc/dcmitype/StillImage" /><dc:title></dc:title></cc:Work></rdf:RDF></metadata><defs
     id="defs8" /><sodipodi:namedview
     pagecolor="#ffffff"
     bordercolor="#666666"
     borderopacity="1"
     objecttolerance="10"
     gridtolerance="10"
     guidetolerance="10"
     inkscape:pageopacity="0"
     inkscape:pageshadow="2"
     inkscape:window-width="1920"
     inkscape:window-height="1057"
     id="namedview6"
     showgrid="false"
     inkscape:snap-page="true"
     inkscape:snap-bbox="true"
     inkscape:bbox-nodes="true"
     inkscape:zoom="1.888"
     inkscape:cx="50"
     inkscape:cy="62.5"
     inkscape:window-x="131"
     inkscape:window-y="-8"
     inkscape:window-maximized="1"
     inkscape:current-layer="svg2" /><path
     d="M 70.859723,36.704167 69.766668,35.170834 C 65.752779,29.555556 62.5,20.868056 62.5,15.769445 l 0,-6.3944448 3.125,0 0,-3.1250001 C 65.625,2.7986112 62.82639,0 59.375,0 l -18.75,0 c -3.451389,0 -6.25,2.7986112 -6.25,6.2500001 l 0,3.1250001 3.125,0 0,6.3944448 c 0,5.098611 -3.252778,13.786111 -7.265278,19.401389 l -1.093056,1.533333 C 25.127777,42.319445 21.875,52.470834 21.875,59.375001 l 0,53.124999 c 0,6.90417 5.597222,12.5 12.5,12.5 l 31.25,0 c 6.904167,0 12.5,-5.59583 12.5,-12.5 l 0,-53.124999 c 0,-6.904167 -3.252778,-17.055556 -7.265277,-22.670834 z m -11.484722,3.920834 c 0,10.354167 -8.395834,18.75 -18.750001,18.75 l -6.25,0 0,53.124999 c -3.451389,0 -6.25,-2.79861 -6.25,-6.25 l 0,-48.119443 0.04583,0 c 0.365277,-5.595834 3.0375,-13.568056 6.055555,-17.794445 L 35.32361,38.800001 C 40.126389,32.077778 43.75,22.176389 43.75,15.769445 l 0,-6.3944448 3.125,0 c 0,3.4513888 2.798612,6.2499998 6.25,6.2499998 l 3.125,0 0,0.144445 c 0,6.004167 3.184722,15.076389 7.5375,21.730556 l -4.693055,0 c 0.170833,1.019444 0.280555,2.058333 0.280555,3.125 z"
     id="path4"
     inkscape:connector-curvature="0" /></svg>