<svg xmlns="http://www.w3.org/2000/svg"
xmlns:xlink="http://www.w3.org/1999/xlink" version="1.1" x="0px" y="0px"
viewBox="0 0 100 125" enable-background="new 0 0 100 100"
xml:space="preserve"><path
d="M96.099,48.064c-0.506-0.67-12.543-16.397-27.983-16.397c-4.26,0-7.955,2.172-10.4,6.114
c-1.565,2.524-2.568,5.698-2.931,9.134h-3.175v-7.743c0-1.568-1.271-2.839-2.839-2.839c-1.568,0-2.839,1.271-2.839,2.839v7.743
h-3.785V34.506c0-1.568-1.271-2.839-2.839-2.839c-1.568,0-2.839,1.271-2.839,2.839v12.409h-3.785v-7.743
c0-1.568-1.271-2.839-2.839-2.839c-1.568,0-2.839,1.271-2.839,2.839v7.743h-4.59L9.802,34.302c-0.812-0.812-2.034-1.056-3.094-0.616
c-1.061,0.439-1.752,1.475-1.752,2.623l0.001,26.928c0,1.149,0.692,2.185,1.753,2.624c0.351,0.145,0.72,0.215,1.085,0.215
c0.739,0,1.465-0.288,2.009-0.832l12.65-12.651h4.551v7.743c0,1.568,1.271,2.839,2.839,2.839c1.568,0,2.839-1.271,2.839-2.839
v-7.743h3.785v12.899c0,1.568,1.271,2.84,2.839,2.84c1.568,0,2.839-1.271,2.839-2.84V52.593h3.785v7.743
c0,1.568,1.271,2.839,2.839,2.839c1.568,0,2.839-1.271,2.839-2.839v-7.743h3.173c0.817,7.81,5.06,15.286,13.333,15.286
c15.44,0,27.478-15.728,27.983-16.397C96.861,50.471,96.861,49.076,96.099,48.064z
M10.634,56.383V43.165l6.609,6.608L10.634,56.383  z
M68.115,62.201c-5.127,0-7.812-6.252-7.812-12.428c0-3.427,0.816-6.707,2.235-9c1.411-2.275,3.287-3.428,5.576-3.428
c9.91,0,18.681,8.669,22.017,12.431C86.803,53.542,78.059,62.201,68.115,62.201z"/><circle
cx="78.676" cy="49.772" r="3.028"/></svg>
