<?xml version="1.0" encoding="UTF-8" standalone="no"?>
<svg
   xmlns:dc="http://purl.org/dc/elements/1.1/"
   xmlns:cc="http://creativecommons.org/ns#"
   xmlns:rdf="http://www.w3.org/1999/02/22-rdf-syntax-ns#"
   xmlns:svg="http://www.w3.org/2000/svg"
   xmlns="http://www.w3.org/2000/svg"
   xmlns:sodipodi="http://sodipodi.sourceforge.net/DTD/sodipodi-0.dtd"
   xmlns:inkscape="http://www.inkscape.org/namespaces/inkscape"
   version="1.1"
   x="0px"
   y="0px"
   viewBox="0 0 36.665001 91.714379"
   enable-background="new 0 0 100 100"
   xml:space="preserve"
   id="svg2"
   inkscape:version="0.91 r13725"
   sodipodi:docname="peskitarian.svg"
   width="36.665001"
   height="91.714378"><metadata
     id="metadata12"><rdf:RDF><cc:Work
         rdf:about=""><dc:format>image/svg+xml</dc:format><dc:type
           rdf:resource="http://purl.org/dc/dcmitype/StillImage" /><dc:title></dc:title></cc:Work></rdf:RDF></metadata><defs
     id="defs10" /><sodipodi:namedview
     pagecolor="#ffffff"
     bordercolor="#666666"
     borderopacity="1"
     objecttolerance="10"
     gridtolerance="10"
     guidetolerance="10"
     inkscape:pageopacity="0"
     inkscape:pageshadow="2"
     inkscape:window-width="1378"
     inkscape:window-height="937"
     id="namedview8"
     showgrid="false"
     fit-margin-top="0"
     fit-margin-left="0"
     fit-margin-right="0"
     fit-margin-bottom="0"
     inkscape:zoom="1.888"
     inkscape:cx="-87.6184"
     inkscape:cy="33.356687"
     inkscape:window-x="-8"
     inkscape:window-y="1072"
     inkscape:window-maximized="1"
     inkscape:current-layer="svg2" /><g
     id="g3709"
     transform="matrix(0,-1,1,0,0,91.714375)"><path
       inkscape:connector-curvature="0"
       id="path4"
       d="M 91.143,16.397 C 90.637,15.727 78.6,0 63.16,0 58.9,0 55.205,2.172 52.76,6.114 c -1.565,2.524 -2.568,5.698 -2.931,9.134 l -3.175,0 0,-7.743 c 0,-1.568 -1.271,-2.839 -2.839,-2.839 -1.568,0 -2.839,1.271 -2.839,2.839 l 0,7.743 -3.785,0 0,-12.409 C 37.191,1.271 35.92,0 34.352,0 32.784,0 31.513,1.271 31.513,2.839 l 0,12.409 -3.785,0 0,-7.743 c 0,-1.568 -1.271,-2.839 -2.839,-2.839 -1.568,0 -2.839,1.271 -2.839,2.839 l 0,7.743 -4.59,0 L 4.846,2.635 C 4.034,1.823 2.812,1.579 1.752,2.019 0.691,2.458 0,3.494 0,4.642 L 0.001,31.57 c 0,1.149 0.692,2.185 1.753,2.624 0.351,0.145 0.72,0.215 1.085,0.215 0.739,0 1.465,-0.288 2.009,-0.832 l 12.65,-12.651 4.551,0 0,7.743 c 0,1.568 1.271,2.839 2.839,2.839 1.568,0 2.839,-1.271 2.839,-2.839 l 0,-7.743 3.785,0 0,12.899 c 0,1.568 1.271,2.84 2.839,2.84 1.568,0 2.839,-1.271 2.839,-2.84 l 0,-12.899 3.785,0 0,7.743 c 0,1.568 1.271,2.839 2.839,2.839 1.568,0 2.839,-1.271 2.839,-2.839 l 0,-7.743 3.173,0 c 0.817,7.81 5.06,15.286 13.333,15.286 15.44,0 27.478,-15.728 27.983,-16.397 0.763,-1.011 0.763,-2.406 0.001,-3.418 z m -85.465,8.319 0,-13.218 6.609,6.608 -6.609,6.61 z m 57.481,5.818 c -5.127,0 -7.812,-6.252 -7.812,-12.428 0,-3.427 0.816,-6.707 2.235,-9 1.411,-2.275 3.287,-3.428 5.576,-3.428 9.91,0 18.681,8.669 22.017,12.431 -3.328,3.766 -12.072,12.425 -22.016,12.425 z" /><circle
       id="circle6"
       r="3.0280001"
       cy="18.105"
       cx="73.720001" /></g></svg>