<?xml version="1.0" encoding="UTF-8" standalone="no"?>
<svg
   xmlns:dc="http://purl.org/dc/elements/1.1/"
   xmlns:cc="http://creativecommons.org/ns#"
   xmlns:rdf="http://www.w3.org/1999/02/22-rdf-syntax-ns#"
   xmlns:svg="http://www.w3.org/2000/svg"
   xmlns="http://www.w3.org/2000/svg"
   xmlns:sodipodi="http://sodipodi.sourceforge.net/DTD/sodipodi-0.dtd"
   xmlns:inkscape="http://www.inkscape.org/namespaces/inkscape"
   version="1.0"
   x="0px"
   y="0px"
   viewBox="0 0 89.950996 68.745003"
   enable-background="new 0 0 100 100"
   xml:space="preserve"
   id="svg2"
   inkscape:version="0.91 r13725"
   sodipodi:docname="vegetarian.svg"
   width="89.950996"
   height="68.745003"><metadata
     id="metadata10"><rdf:RDF><cc:Work
         rdf:about=""><dc:format>image/svg+xml</dc:format><dc:type
           rdf:resource="http://purl.org/dc/dcmitype/StillImage" /><dc:title></dc:title></cc:Work></rdf:RDF></metadata><defs
     id="defs8" /><sodipodi:namedview
     pagecolor="#ffffff"
     bordercolor="#666666"
     borderopacity="1"
     objecttolerance="10"
     gridtolerance="10"
     guidetolerance="10"
     inkscape:pageopacity="0"
     inkscape:pageshadow="2"
     inkscape:window-width="1920"
     inkscape:window-height="1057"
     id="namedview6"
     showgrid="false"
     fit-margin-top="0"
     fit-margin-left="0"
     fit-margin-right="0"
     fit-margin-bottom="0"
     inkscape:zoom="1.888"
     inkscape:cx="39.149729"
     inkscape:cy="24.999"
     inkscape:window-x="131"
     inkscape:window-y="-8"
     inkscape:window-maximized="1"
     inkscape:current-layer="svg2" /><path
     d="m 43.426,68.745001 c 0,0 -1.772,-49.417 -43.426,-68.74500047390716 C 0,5.2609283e-7 51.785,4.8730005 43.426,68.745001 Z m 14.075,-29.496 c 10.035,-7.941 18.488,-15.329 26.783,-30.6830005 l 0,0 c 0.363,-0.745 0.658,-1.35 0.855,-1.75 0.75,-1.458 2.371,-4.974 4.812,-6.81599997390716 C 89.93,-9.9947391e-4 65.078,1.4220005 53.556,17.992001 c -4.271,6.14 -7.312,16.379 -7.312,35.529 0.055,-0.26 0.111,-0.528 0.166,-0.811 0.248,-1.105 0.66,-2.32 1.039,-3.658 0.197,-0.664 0.401,-1.363 0.613,-2.084 0.244,-0.705 0.538,-1.43 0.818,-2.171 0.585,-1.483 1.115,-3.079 1.908,-4.629 0.75,-1.569 1.453,-3.22 2.387,-4.787 0.443,-0.794 0.889,-1.592 1.342,-2.395 0.445,-0.8 0.98,-1.557 1.471,-2.339 0.506,-0.771 0.98,-1.564 1.51,-2.313 0.543,-0.742 1.078,-1.478 1.613,-2.213 1.029,-1.494 2.229,-2.824 3.293,-4.18 1.143,-1.294 2.232,-2.556 3.33,-3.69 1.104,-1.132 2.145,-2.204 3.158,-3.13 1.994,-1.899 3.771,-3.353 5.029,-4.345 1.264,-0.9910005 2.025,-1.4990005 2.025,-1.4990005 0,0 -0.744,0.54 -1.961,1.5790005 -1.216,1.042 -2.931,2.561 -4.837,4.532 -0.978,0.964 -1.965,2.07 -3.012,3.239 -1.043,1.169 -2.072,2.465 -3.149,3.793 -1.002,1.387 -2.132,2.748 -3.091,4.265 -0.498,0.746 -0.998,1.496 -1.5,2.249 -0.489,0.761 -0.928,1.562 -1.392,2.34 -0.448,0.792 -0.942,1.551 -1.354,2.355 -0.406,0.808 -0.812,1.61 -1.211,2.407 -0.854,1.566 -1.479,3.22 -2.148,4.777 -0.707,1.541 -1.164,3.121 -1.672,4.592 -0.246,0.736 -0.504,1.445 -0.711,2.146 -0.107,0.432 -0.211,0.834 -0.312,1.244 1.726,-2.884 4.182,-6.181 7.905,-9.546 z"
     id="path4"
     inkscape:connector-curvature="0" /></svg>