<?xml version="1.0" encoding="UTF-8" standalone="no"?>
<!-- Created with Inkscape (http://www.inkscape.org/) -->

<svg
   xmlns:dc="http://purl.org/dc/elements/1.1/"
   xmlns:cc="http://creativecommons.org/ns#"
   xmlns:rdf="http://www.w3.org/1999/02/22-rdf-syntax-ns#"
   xmlns:svg="http://www.w3.org/2000/svg"
   xmlns="http://www.w3.org/2000/svg"
   xmlns:sodipodi="http://sodipodi.sourceforge.net/DTD/sodipodi-0.dtd"
   xmlns:inkscape="http://www.inkscape.org/namespaces/inkscape"
   width="292.33081"
   height="31"
   viewBox="0 0 292.33077 31"
   id="svg5234"
   version="1.1"
   inkscape:version="0.91 r13725"
   sodipodi:docname="mainMenu.svg"
   inkscape:export-filename="C:\Users\evan\Source\EWDining\resources\images\borders\mainMenu.png"
   inkscape:export-xdpi="85.800003"
   inkscape:export-ydpi="85.800003">
  <defs
     id="defs5236">
    <inkscape:path-effect
       effect="skeletal"
       id="path-effect5811"
       is_visible="true"
       pattern="m 116.8866,159.44988 -22.903607,12.77482 -22.903608,12.77482 0.388482,-26.22251 0.388482,-26.22252 22.515126,13.44769 z"
       copytype="single_stretched"
       prop_scale="0.013"
       scale_y_rel="false"
       spacing="0"
       normal_offset="0"
       tang_offset="0"
       prop_units="false"
       vertical_pattern="false"
       fuse_tolerance="0" />
    <inkscape:path-effect
       effect="powerstroke"
       id="path-effect5809"
       is_visible="true"
       offset_points="0,0.5"
       sort_points="true"
       interpolator_type="Linear"
       interpolator_beta="0.2"
       start_linecap_type="zerowidth"
       linejoin_type="round"
       miter_limit="4"
       end_linecap_type="zerowidth"
       cusp_linecap_type="round" />
    <inkscape:path-effect
       effect="spiro"
       id="path-effect5807"
       is_visible="true" />
    <inkscape:path-effect
       effect="powerstroke"
       id="path-effect5803"
       is_visible="true"
       offset_points="0,0.5"
       sort_points="true"
       interpolator_type="Linear"
       interpolator_beta="0.2"
       start_linecap_type="zerowidth"
       linejoin_type="round"
       miter_limit="4"
       end_linecap_type="zerowidth"
       cusp_linecap_type="round" />
    <inkscape:path-effect
       effect="spiro"
       id="path-effect5801"
       is_visible="true" />
    <inkscape:path-effect
       effect="powerstroke"
       id="path-effect5797"
       is_visible="true"
       offset_points="0,0.5"
       sort_points="true"
       interpolator_type="Linear"
       interpolator_beta="0.2"
       start_linecap_type="zerowidth"
       linejoin_type="round"
       miter_limit="4"
       end_linecap_type="zerowidth"
       cusp_linecap_type="round" />
    <inkscape:path-effect
       effect="spiro"
       id="path-effect5795"
       is_visible="true" />
  </defs>
  <sodipodi:namedview
     id="base"
     pagecolor="#ffffff"
     bordercolor="#666666"
     borderopacity="1.0"
     inkscape:pageopacity="0.0"
     inkscape:pageshadow="2"
     inkscape:zoom="0.9899495"
     inkscape:cx="-149.66828"
     inkscape:cy="-104.77193"
     inkscape:document-units="px"
     inkscape:current-layer="layer1"
     showgrid="false"
     fit-margin-top="0"
     fit-margin-left="0"
     fit-margin-right="0"
     fit-margin-bottom="0"
     inkscape:window-width="1373"
     inkscape:window-height="937"
     inkscape:window-x="-8"
     inkscape:window-y="-8"
     inkscape:window-maximized="1"
     showguides="false"
     inkscape:guide-bbox="true"
     inkscape:snap-page="true"
     inkscape:object-paths="true"
     inkscape:object-nodes="true"
     inkscape:snap-smooth-nodes="true"
     inkscape:snap-global="false"
     units="px">
    <sodipodi:guide
       position="-133.83457,48.749998"
       orientation="1,0"
       id="guide5891" />
    <sodipodi:guide
       position="-133.83457,48.749998"
       orientation="0,1"
       id="guide5893" />
    <sodipodi:guide
       position="-133.47742,88.124997"
       orientation="0,1"
       id="guide5895" />
    <sodipodi:guide
       position="-144.906,61.874997"
       orientation="0,25.71428"
       id="guide5926" />
    <sodipodi:guide
       position="-145.97743,74.999997"
       orientation="0,25.71428"
       id="guide5928" />
    <sodipodi:guide
       position="-120.70956,48.749992"
       orientation="1,0"
       id="guide5932" />
    <sodipodi:guide
       position="-146.95957,48.749992"
       orientation="1,0"
       id="guide5934" />
  </sodipodi:namedview>
  <metadata
     id="metadata5239">
    <rdf:RDF>
      <cc:Work
         rdf:about="">
        <dc:format>image/svg+xml</dc:format>
        <dc:type
           rdf:resource="http://purl.org/dc/dcmitype/StillImage" />
        <dc:title></dc:title>
      </cc:Work>
    </rdf:RDF>
  </metadata>
  <g
     inkscape:label="Layer 1"
     inkscape:groupmode="layer"
     id="layer1"
     transform="translate(-486.60247,110.08869)">
    <path
       style="fill:#000000;fill-opacity:1;fill-rule:nonzero;stroke:none;stroke-width:1px;stroke-linecap:butt;stroke-linejoin:miter;stroke-opacity:1"
       d="m 716.36362,-105.2037 c 2.2989,0.20828 1.2099,0.78506 -0.5065,0.78506 -4.4607,0 -14.2532,3.0006 -14.2532,8.203806 0,7.917745 17.1284,11.442002 28.0363,11.442002 11.6341,0 28.7425,-3.272173 28.7425,-10.08271 0,-6.331478 -33.8338,-14.049248 -54.3777,-14.049248 -23.8249,0 -53.45959,7.48258 -53.45959,17.030918 0,7.953865 10.90493,11.184724 21.85699,11.184724 5.2089,0 10.4871,-0.509495 10.4871,-3.864444 0,-10.974008 -32.41936,-20.264268 -49.73413,-20.264268 -5.88161,0 -10.36374,1.0326 -10.36374,4.70054 0,7.129055 27.88053,11.444363 33.05033,11.444363 38.08534,0 59.91084,-8.550383 82.55514,-8.550383 35.3149,0 40.5361,9.203451 40.5361,10.918183 0,-1.777102 -14.5142,-9.295803 -29.7311,-9.295803 -31.3789,0 -33.6136,8.594233 -81.2135,8.594233 -25.90619,0 -47.38621,-7.467342 -47.38621,-14.119093 0,-4.38437 9.60297,-5.11355 12.42124,-5.11355 19.99512,0 52.33767,11.539404 52.33767,22.168105 0,3.993836 -4.5462,4.982575 -11.0168,4.982575 -19.0501,0 -25.98832,-9.112729 -25.98832,-13.048267 0,-8.234023 28.58052,-17.951733 55.64882,-17.951733 26.9706,0 57.0613,8.33197 57.0613,16.153959 0,7.497292 -9.3003,10.915825 -28.7425,10.915825 -13.9995,0 -32.9767,-4.460739 -32.7679,-13.152078 0.1513,-6.292816 9.2233,-9.719846 16.8077,-9.032716 z"
       id="path5829"
       inkscape:connector-curvature="0"
       sodipodi:nodetypes="ssssssssssssscssssssssssss" />
    <path
       sodipodi:nodetypes="ssssssssssssscssssssssssss"
       inkscape:connector-curvature="0"
       id="path4157"
       d="m 549.17201,-105.2037 c -2.29892,0.20828 -1.20984,0.78506 0.50654,0.78506 4.46063,0 14.25313,3.0006 14.25313,8.203806 0,7.917745 -17.12835,11.442002 -28.03628,11.442002 -11.63404,0 -28.7425,-3.272173 -28.7425,-10.08271 0,-6.331478 33.83387,-14.049248 54.37768,-14.049248 23.82492,0 53.45964,7.48258 53.45964,17.030918 0,7.953865 -10.90493,11.184724 -21.85701,11.184724 -5.20888,0 -10.48711,-0.509495 -10.48711,-3.864444 0,-10.974008 32.41939,-20.264268 49.73416,-20.264268 5.88163,0 10.36374,1.0326 10.36374,4.70054 0,7.129055 -27.88053,11.444363 -33.05033,11.444363 -38.08532,0 -59.91082,-8.550383 -82.55518,-8.550383 -35.31485,0 -40.53608,9.203451 -40.53608,10.918183 0,-1.777102 14.51425,-9.295803 29.73116,-9.295803 31.37885,0 33.61356,8.594233 81.21341,8.594233 25.90624,0 47.38626,-7.467342 47.38626,-14.119093 0,-4.38437 -9.60297,-5.11355 -12.42124,-5.11355 -19.99512,0 -52.33764,11.539404 -52.33764,22.168105 0,3.993836 4.54613,4.982575 11.01678,4.982575 19.05009,0 25.98831,-9.112729 25.98831,-13.048267 0,-8.234023 -28.58049,-17.951733 -55.64887,-17.951733 -26.97057,0 -57.06124,8.33197 -57.06124,16.153959 0,7.497292 9.30024,10.915825 28.7425,10.915825 13.99955,0 32.97666,-4.460739 32.76784,-13.152078 -0.15124,-6.292816 -9.22327,-9.719846 -16.80767,-9.032716 z"
       style="fill:#000000;fill-opacity:1;fill-rule:nonzero;stroke:none;stroke-width:1px;stroke-linecap:butt;stroke-linejoin:miter;stroke-opacity:1" />
  </g>
</svg>
