<?xml version="1.0" encoding="UTF-8" standalone="no"?>
<svg
   xmlns:dc="http://purl.org/dc/elements/1.1/"
   xmlns:cc="http://creativecommons.org/ns#"
   xmlns:rdf="http://www.w3.org/1999/02/22-rdf-syntax-ns#"
   xmlns:svg="http://www.w3.org/2000/svg"
   xmlns="http://www.w3.org/2000/svg"
   xmlns:sodipodi="http://sodipodi.sourceforge.net/DTD/sodipodi-0.dtd"
   xmlns:inkscape="http://www.inkscape.org/namespaces/inkscape"
   version="1.1"
   x="0px"
   y="0px"
   viewBox="0 0 47 85.360001"
   enable-background="new 0 0 100 100"
   xml:space="preserve"
   id="svg2"
   inkscape:version="0.91 r13725"
   sodipodi:docname="games-night.svg"
   width="47"
   height="85.360001"><metadata
     id="metadata26"><rdf:RDF><cc:Work
         rdf:about=""><dc:format>image/svg+xml</dc:format><dc:type
           rdf:resource="http://purl.org/dc/dcmitype/StillImage" /><dc:title></dc:title></cc:Work></rdf:RDF></metadata><defs
     id="defs24" /><sodipodi:namedview
     pagecolor="#ffffff"
     bordercolor="#666666"
     borderopacity="1"
     objecttolerance="10"
     gridtolerance="10"
     guidetolerance="10"
     inkscape:pageopacity="0"
     inkscape:pageshadow="2"
     inkscape:window-width="1920"
     inkscape:window-height="1057"
     id="namedview22"
     showgrid="false"
     fit-margin-top="0"
     fit-margin-left="0"
     fit-margin-right="0"
     fit-margin-bottom="0"
     inkscape:zoom="1.888"
     inkscape:cx="-57.457627"
     inkscape:cy="26.843"
     inkscape:window-x="131"
     inkscape:window-y="-8"
     inkscape:window-maximized="1"
     inkscape:current-layer="svg2" /><path
     d="m 5.125,85.36 21.75,0 0,-12.746 -16,0 c 0,0 -7.25,3.982 -5.75,12.746 z"
     id="path6"
     inkscape:connector-curvature="0" /><path
     d="m 26.875,72.614 13.296,0 c 0,0 7.25,3.982 5.75,12.746 l -21.75,0"
     id="path8"
     inkscape:connector-curvature="0" /><rect
     x="10.875"
     y="59.972"
     width="28.875"
     height="10.098"
     id="rect10" /><path
     d="m 10.875,59.972 28.875,0 0,-2.352 7.25,0 0,-29.104 c 0,0 -5.375,-23.813 -21.313,-23.96 -15.937,-0.147 8.938,18.227 8.938,18.227 l -10.454,6.027 0,6.468 -9.796,14.993 c 0,0 -3.5,4.998 -3.5,9.701 z"
     id="path12"
     inkscape:connector-curvature="0" /><path
     d="M 7.125,23.224 0,32.043 l 0,2.646 3.563,3.969 c 0,0 4.813,1.616 5.563,-3.381 0.75,-4.998 4.75,-4.16 4.875,-4.212 0.125,-0.051 4.717,4.358 10.171,-1.08 l 3.329,1.911 9.125,-7.203 -6.875,-9.995 -5.579,-8.914 -3.673,1.791 -10.748,7.857 -2.626,7.792 z"
     id="path14"
     inkscape:connector-curvature="0" /><path
     d="m 25.875,7.109 c 0,0 0,-4.848 -6.54,-7.109 l -1.017,0 c 0,0 -0.291,5.655 3.778,8.563"
     id="path16"
     inkscape:connector-curvature="0" /></svg>