<?xml version="1.0" encoding="UTF-8" standalone="no"?>
<svg
   xmlns:dc="http://purl.org/dc/elements/1.1/"
   xmlns:cc="http://creativecommons.org/ns#"
   xmlns:rdf="http://www.w3.org/1999/02/22-rdf-syntax-ns#"
   xmlns:svg="http://www.w3.org/2000/svg"
   xmlns="http://www.w3.org/2000/svg"
   xmlns:sodipodi="http://sodipodi.sourceforge.net/DTD/sodipodi-0.dtd"
   xmlns:inkscape="http://www.inkscape.org/namespaces/inkscape"
   version="1.1"
   x="0px"
   y="0px"
   viewBox="0 0 16 16"
   xml:space="preserve"
   id="svg2"
   inkscape:version="0.91 r13725"
   sodipodi:docname="masquerade.svg"
   width="16"
   height="16"><metadata
     id="metadata18"><rdf:RDF><cc:Work
         rdf:about=""><dc:format>image/svg+xml</dc:format><dc:type
           rdf:resource="http://purl.org/dc/dcmitype/StillImage" /><dc:title></dc:title></cc:Work></rdf:RDF></metadata><defs
     id="defs16" /><sodipodi:namedview
     pagecolor="#ffffff"
     bordercolor="#666666"
     borderopacity="1"
     objecttolerance="10"
     gridtolerance="10"
     guidetolerance="10"
     inkscape:pageopacity="0"
     inkscape:pageshadow="2"
     inkscape:window-width="1920"
     inkscape:window-height="1057"
     id="namedview14"
     showgrid="false"
     fit-margin-top="0"
     fit-margin-left="0"
     fit-margin-right="0"
     fit-margin-bottom="0"
     inkscape:zoom="11.8"
     inkscape:cx="8.6059595"
     inkscape:cy="6"
     inkscape:window-x="131"
     inkscape:window-y="-8"
     inkscape:window-maximized="1"
     inkscape:current-layer="svg2" /><g
     id="g4"><path
       d="m 11,4 0,1 C 11,9.844 9.015,11.264 6.525,12.415 7.315,14.42 8.94,15.099 11,16 13.941,14.713 16,13.893 16,9 L 16,5.043 C 14.527,4.384 12.824,4 11,4 Z m 2.5,9 C 13.234,12.539 12.748,12.375 12.328,12.195 11.878,12.039 11.46,11.956 11,11.956 10.559,11.952 10.11,12.039 9.671,12.194 9.251,12.373 8.764,12.539 8.5,13 8.412,12.722 8.564,12.411 8.717,12.177 8.885,11.939 9.096,11.733 9.336,11.569 9.813,11.229 10.401,11.058 11,11.045 c 0.579,0.01 1.2,0.185 1.664,0.523 0.241,0.164 0.452,0.37 0.62,0.608 0.154,0.237 0.303,0.541 0.216,0.824 z M 15,7.5 C 15,8.328 14.328,9 13.5,9 l -1,0 C 12.224,9 12,8.776 12,8.5 12,8.224 12.224,8 12.5,8 L 14,8 c 0.553,0 1,-0.448 1,-1 l 0,0.5 z"
       id="path6"
       inkscape:connector-curvature="0" /><path
       d="M 10,5 10,1.043 C 8.527,0.384 6.824,0 5,0 3.177,0 1.472,0.384 0,1.043 L 0,5 c 0,4.893 2.06,5.713 5,7 2.941,-1.287 5,-2.107 5,-7 z M 1,3.5 1,3 C 1,3.552 1.447,4 2,4 L 3.5,4 C 3.776,4 4,4.224 4,4.5 4,4.776 3.776,5 3.5,5 l -1,0 C 1.672,5 1,4.328 1,3.5 Z M 7.283,7.823 C 7.115,8.062 6.904,8.268 6.663,8.431 6.188,8.771 5.598,8.942 5,8.956 4.42,8.946 3.8,8.771 3.335,8.433 3.095,8.269 2.884,8.063 2.716,7.824 2.563,7.587 2.413,7.283 2.5,7 2.766,7.46 3.252,7.625 3.672,7.804 4.123,7.961 4.54,8.044 5,8.044 5.441,8.047 5.889,7.961 6.329,7.806 6.749,7.626 7.236,7.461 7.5,7 7.588,7.278 7.436,7.589 7.283,7.823 Z M 7.5,5 6.5,5 C 6.224,5 6,4.776 6,4.5 6,4.224 6.224,4 6.5,4 L 8,4 C 8.552,4 9,3.552 9,3 L 9,3.5 C 9,4.328 8.328,5 7.5,5 Z"
       id="path8"
       inkscape:connector-curvature="0" /></g></svg>